<svg width="79" height="66" viewBox="0 0 79 66" fill="none" xmlns="http://www.w3.org/2000/svg">
<circle cx="28" cy="28" r="28" fill="#455467"/>
<path d="M37.406 25.9897L43.521 19.8748V36.7088L37.406 30.5939V35.9894C37.406 36.4211 37.2502 36.7808 36.9385 37.0685C36.6267 37.3563 36.255 37.5002 35.8234 37.5002H17.4067C16.9751 37.5002 16.6154 37.3563 16.3276 37.0685C16.0399 36.7808 15.896 36.4211 15.896 35.9894V20.5942C15.896 20.1626 16.0399 19.8029 16.3276 19.5151C16.6154 19.2274 16.9751 19.0835 17.4067 19.0835H35.8234C36.255 19.0835 36.6267 19.2274 36.9385 19.5151C37.2502 19.8029 37.406 20.1626 37.406 20.5942V25.9897Z" fill="white"/>
<g clip-path="url(#clip0)">
<path d="M57.5628 58.5627C59.3157 58.5627 60.9636 57.8802 62.2031 56.6407L65 53.844L67.7966 56.6404C69.0362 57.88 70.6841 58.5627 72.437 58.5627C74.1902 58.5627 75.8383 57.88 77.0778 56.6404C78.3174 55.4007 79 53.7528 79 51.9998C79 50.2469 78.3174 48.5988 77.0778 47.3592C75.8382 46.1197 74.1901 45.4371 72.4372 45.4371C70.6843 45.4371 69.0362 46.1197 67.7967 47.3592L65 50.1558L62.2034 47.3592C60.9638 46.1197 59.3158 45.437 57.5628 45.437C55.8098 45.437 54.1617 46.1197 52.9223 47.3592C51.6826 48.5988 51 50.2469 51 51.9998C51 53.7529 51.6826 55.4009 52.9223 56.6403C54.1616 57.88 55.8097 58.5627 57.5628 58.5627ZM60.3592 54.7968C59.6121 55.5435 58.6191 55.9549 57.5628 55.9548C56.5064 55.9548 55.5132 55.5435 54.7662 54.7965C54.0193 54.0494 53.6078 53.0562 53.6078 51.9998C53.6078 50.9434 54.0192 49.9503 54.7662 49.2033C55.5133 48.4563 56.5064 48.0449 57.5628 48.0449C58.6192 48.0449 59.6124 48.4563 60.3595 49.2033L63.1559 51.9998L60.3592 54.7968ZM72.4372 48.0449C73.4936 48.0449 74.4867 48.4563 75.2337 49.2033C75.9808 49.9503 76.3921 50.9434 76.3921 51.9998C76.3921 53.0562 75.9808 54.0494 75.2337 54.7964C74.4867 55.5434 73.4935 55.9548 72.4372 55.9548C71.3808 55.9548 70.3876 55.5435 69.6407 54.7965L66.8441 51.9998L69.6407 49.2033C70.3876 48.4563 71.3808 48.0448 72.4372 48.0449Z" fill="#409EFF"/>
</g>
<defs>
<clipPath id="clip0">
<rect width="28" height="28" fill="white" transform="matrix(-1 0 0 1 79 38)"/>
</clipPath>
</defs>
</svg>
