<svg width="64" height="47" viewBox="0 0 64 47" fill="none" xmlns="http://www.w3.org/2000/svg">
<rect y="9" width="64" height="31" rx="5" fill="#415163"/>
<path d="M25.321 17.964H26.8L31.951 30H30.047L28.84 27.025H23.111L21.921 30H20.017L25.321 17.964ZM28.245 25.597L26.001 20.072H25.967L23.689 25.597H28.245ZM33.2447 17.964H37.4437C38.2937 17.964 39.0361 18.0603 39.6707 18.253C40.3167 18.4457 40.8721 18.7063 41.3367 19.035C41.8127 19.3523 42.2037 19.7207 42.5097 20.14C42.8271 20.5593 43.0764 20.99 43.2577 21.432C43.4391 21.874 43.5694 22.316 43.6487 22.758C43.7281 23.2 43.7677 23.608 43.7677 23.982C43.7677 24.7527 43.6261 25.5007 43.3427 26.226C43.0594 26.94 42.6401 27.5803 42.0847 28.147C41.5294 28.7023 40.8381 29.15 40.0107 29.49C39.1947 29.83 38.2484 30 37.1717 30H33.2447V17.964ZM34.8767 28.47H36.9337C37.6251 28.47 38.2767 28.3793 38.8887 28.198C39.5121 28.0053 40.0561 27.722 40.5207 27.348C40.9854 26.974 41.3537 26.5093 41.6257 25.954C41.8977 25.3873 42.0337 24.73 42.0337 23.982C42.0337 23.5967 41.9714 23.149 41.8467 22.639C41.7221 22.1177 41.4841 21.6247 41.1327 21.16C40.7927 20.6953 40.3167 20.3043 39.7047 19.987C39.0927 19.6583 38.2994 19.494 37.3247 19.494H34.8767V28.47Z" fill="white"/>
<line x1="12.0607" y1="1.93934" x2="56.0607" y2="45.9393" stroke="#409EFF" stroke-width="3"/>
</svg>
