<svg width="176" height="33" viewBox="0 0 176 33" fill="none" xmlns="http://www.w3.org/2000/svg">
<path d="M16 0L19.5922 11.4012H31.2169L21.8123 18.4476L25.4046 29.8488L16 22.8024L6.59544 29.8488L10.1877 18.4476L0.783095 11.4012H12.4078L16 0Z" fill="#606367"/>
<path d="M52 0L55.5922 11.4012H67.2169L57.8123 18.4476L61.4046 29.8488L52 22.8024L42.5954 29.8488L46.1877 18.4476L36.7831 11.4012H48.4078L52 0Z" fill="#606367"/>
<path d="M88 0L91.5922 11.4012H103.217L93.8123 18.4476L97.4046 29.8488L88 22.8024L78.5954 29.8488L82.1877 18.4476L72.7831 11.4012H84.4078L88 0Z" fill="#606367"/>
<path d="M124 0L127.592 11.4012H139.217L129.812 18.4476L133.405 29.8488L124 22.8024L114.595 29.8488L118.188 18.4476L108.783 11.4012H120.408L124 0Z" fill="#606367"/>
<path d="M160 0L163.592 11.4012H175.217L165.812 18.4476L169.405 29.8488L160 22.8024L150.595 29.8488L154.188 18.4476L144.783 11.4012H156.408L160 0Z" fill="#606367"/>
</svg>
